<mxfile host="app.diagrams.net" modified="2023-12-18T08:49:28.350Z" agent="Mozilla/5.0 (Macintosh; Intel Mac OS X 10_15_7) AppleWebKit/537.36 (KHTML, like Gecko) Chrome/120.0.0.0 Safari/537.36" etag="PFJgGZhiQw4oZliKk-uG" version="22.1.11" type="github">
  <diagram name="Page-1" id="RxyE_D4JLKOAFFXj91qr">
    <mxGraphModel dx="1107" dy="776" grid="1" gridSize="10" guides="1" tooltips="1" connect="1" arrows="1" fold="1" page="1" pageScale="1" pageWidth="827" pageHeight="1169" math="0" shadow="0">
      <root>
        <mxCell id="0" />
        <mxCell id="1" parent="0" />
        <mxCell id="UgSpfai0S6UUA32coAYj-7" style="edgeStyle=orthogonalEdgeStyle;rounded=0;orthogonalLoop=1;jettySize=auto;html=1;" edge="1" parent="1" source="UgSpfai0S6UUA32coAYj-1" target="UgSpfai0S6UUA32coAYj-4">
          <mxGeometry relative="1" as="geometry" />
        </mxCell>
        <mxCell id="UgSpfai0S6UUA32coAYj-8" value="" style="edgeStyle=orthogonalEdgeStyle;rounded=0;orthogonalLoop=1;jettySize=auto;html=1;" edge="1" parent="1" source="UgSpfai0S6UUA32coAYj-1" target="UgSpfai0S6UUA32coAYj-5">
          <mxGeometry relative="1" as="geometry" />
        </mxCell>
        <mxCell id="UgSpfai0S6UUA32coAYj-9" style="edgeStyle=orthogonalEdgeStyle;rounded=0;orthogonalLoop=1;jettySize=auto;html=1;entryX=0.5;entryY=0;entryDx=0;entryDy=0;" edge="1" parent="1" source="UgSpfai0S6UUA32coAYj-1" target="UgSpfai0S6UUA32coAYj-6">
          <mxGeometry relative="1" as="geometry" />
        </mxCell>
        <mxCell id="UgSpfai0S6UUA32coAYj-1" value="Choix" style="rounded=1;whiteSpace=wrap;html=1;fillColor=#e1d5e7;strokeColor=#9673a6;" vertex="1" parent="1">
          <mxGeometry x="130" y="100" width="120" height="60" as="geometry" />
        </mxCell>
        <mxCell id="UgSpfai0S6UUA32coAYj-2" value="Login" style="rounded=1;whiteSpace=wrap;html=1;" vertex="1" parent="1">
          <mxGeometry x="130" width="120" height="50" as="geometry" />
        </mxCell>
        <mxCell id="UgSpfai0S6UUA32coAYj-4" value="Créer une session" style="rounded=1;whiteSpace=wrap;html=1;fillColor=#dae8fc;strokeColor=#6c8ebf;" vertex="1" parent="1">
          <mxGeometry y="180" width="120" height="60" as="geometry" />
        </mxCell>
        <mxCell id="UgSpfai0S6UUA32coAYj-24" value="" style="edgeStyle=orthogonalEdgeStyle;rounded=0;orthogonalLoop=1;jettySize=auto;html=1;" edge="1" parent="1" source="UgSpfai0S6UUA32coAYj-5" target="UgSpfai0S6UUA32coAYj-23">
          <mxGeometry relative="1" as="geometry" />
        </mxCell>
        <mxCell id="UgSpfai0S6UUA32coAYj-5" value="Évaluation" style="rounded=1;whiteSpace=wrap;html=1;fillColor=#e1d5e7;strokeColor=#9673a6;" vertex="1" parent="1">
          <mxGeometry x="130" y="180" width="120" height="60" as="geometry" />
        </mxCell>
        <mxCell id="UgSpfai0S6UUA32coAYj-6" value="Vue évaluation autres formations" style="rounded=1;whiteSpace=wrap;html=1;fillColor=#f8cecc;strokeColor=#b85450;" vertex="1" parent="1">
          <mxGeometry x="260" y="180" width="120" height="60" as="geometry" />
        </mxCell>
        <mxCell id="UgSpfai0S6UUA32coAYj-10" value="Stagiaire" style="rounded=1;whiteSpace=wrap;html=1;fillColor=#f8cecc;strokeColor=#b85450;" vertex="1" parent="1">
          <mxGeometry x="30" y="70" width="120" height="20" as="geometry" />
        </mxCell>
        <mxCell id="UgSpfai0S6UUA32coAYj-11" value="Formateur" style="rounded=1;whiteSpace=wrap;html=1;fillColor=#dae8fc;strokeColor=#6c8ebf;" vertex="1" parent="1">
          <mxGeometry x="230" y="70" width="120" height="20" as="geometry" />
        </mxCell>
        <mxCell id="UgSpfai0S6UUA32coAYj-18" value="" style="endArrow=none;html=1;rounded=0;" edge="1" parent="1">
          <mxGeometry width="50" height="50" relative="1" as="geometry">
            <mxPoint x="189.79000000000002" y="80" as="sourcePoint" />
            <mxPoint x="189.79000000000002" y="50" as="targetPoint" />
            <Array as="points">
              <mxPoint x="189.79000000000002" y="60" />
            </Array>
          </mxGeometry>
        </mxCell>
        <mxCell id="UgSpfai0S6UUA32coAYj-19" value="" style="endArrow=classic;html=1;rounded=0;entryX=0;entryY=0.5;entryDx=0;entryDy=0;" edge="1" parent="1">
          <mxGeometry width="50" height="50" relative="1" as="geometry">
            <mxPoint x="190" y="79.79000000000002" as="sourcePoint" />
            <mxPoint x="230.0000000000001" y="79.79000000000002" as="targetPoint" />
          </mxGeometry>
        </mxCell>
        <mxCell id="UgSpfai0S6UUA32coAYj-20" value="" style="endArrow=classic;html=1;rounded=0;" edge="1" parent="1">
          <mxGeometry width="50" height="50" relative="1" as="geometry">
            <mxPoint x="190" y="79.79000000000002" as="sourcePoint" />
            <mxPoint x="150" y="79.79000000000002" as="targetPoint" />
          </mxGeometry>
        </mxCell>
        <mxCell id="UgSpfai0S6UUA32coAYj-21" value="" style="endArrow=classic;html=1;rounded=0;entryX=0;entryY=0.25;entryDx=0;entryDy=0;" edge="1" parent="1" target="UgSpfai0S6UUA32coAYj-1">
          <mxGeometry width="50" height="50" relative="1" as="geometry">
            <mxPoint x="90" y="90" as="sourcePoint" />
            <mxPoint x="140" y="40" as="targetPoint" />
            <Array as="points">
              <mxPoint x="90" y="115" />
            </Array>
          </mxGeometry>
        </mxCell>
        <mxCell id="UgSpfai0S6UUA32coAYj-22" value="" style="endArrow=classic;html=1;rounded=0;entryX=1;entryY=0.25;entryDx=0;entryDy=0;" edge="1" parent="1" target="UgSpfai0S6UUA32coAYj-1">
          <mxGeometry width="50" height="50" relative="1" as="geometry">
            <mxPoint x="290" y="90" as="sourcePoint" />
            <mxPoint x="330" y="125" as="targetPoint" />
            <Array as="points">
              <mxPoint x="290" y="115" />
            </Array>
          </mxGeometry>
        </mxCell>
        <mxCell id="UgSpfai0S6UUA32coAYj-23" value="Vue évaluations précédentes" style="whiteSpace=wrap;html=1;fillColor=#e1d5e7;strokeColor=#9673a6;rounded=1;" vertex="1" parent="1">
          <mxGeometry x="130" y="260" width="120" height="60" as="geometry" />
        </mxCell>
        <mxCell id="UgSpfai0S6UUA32coAYj-25" value="MVP&lt;br&gt;&lt;font style=&quot;font-size: 9px;&quot;&gt;(Minimum Viable Product)&lt;/font&gt;" style="rounded=1;whiteSpace=wrap;html=1;" vertex="1" parent="1">
          <mxGeometry x="640" width="120" height="50" as="geometry" />
        </mxCell>
        <mxCell id="UgSpfai0S6UUA32coAYj-37" style="edgeStyle=orthogonalEdgeStyle;rounded=0;orthogonalLoop=1;jettySize=auto;html=1;entryX=0.5;entryY=0;entryDx=0;entryDy=0;" edge="1" parent="1" source="UgSpfai0S6UUA32coAYj-27" target="UgSpfai0S6UUA32coAYj-29">
          <mxGeometry relative="1" as="geometry" />
        </mxCell>
        <mxCell id="UgSpfai0S6UUA32coAYj-38" style="edgeStyle=orthogonalEdgeStyle;rounded=0;orthogonalLoop=1;jettySize=auto;html=1;entryX=0.5;entryY=0;entryDx=0;entryDy=0;" edge="1" parent="1" source="UgSpfai0S6UUA32coAYj-27" target="UgSpfai0S6UUA32coAYj-34">
          <mxGeometry relative="1" as="geometry" />
        </mxCell>
        <mxCell id="UgSpfai0S6UUA32coAYj-27" value="Évaluation" style="rounded=1;whiteSpace=wrap;html=1;" vertex="1" parent="1">
          <mxGeometry x="580" y="80" width="120" height="60" as="geometry" />
        </mxCell>
        <mxCell id="UgSpfai0S6UUA32coAYj-29" value="&lt;font style=&quot;font-size: 11px;&quot;&gt;Diagramme affiche évaluation&lt;/font&gt;" style="whiteSpace=wrap;html=1;rounded=1;" vertex="1" parent="1">
          <mxGeometry x="580" y="180" width="60" height="60" as="geometry" />
        </mxCell>
        <mxCell id="UgSpfai0S6UUA32coAYj-34" value="&lt;font style=&quot;font-size: 9px;&quot;&gt;Possibilité de superposer diagrammes&lt;/font&gt;" style="rounded=1;whiteSpace=wrap;html=1;" vertex="1" parent="1">
          <mxGeometry x="640" y="180" width="60" height="60" as="geometry" />
        </mxCell>
        <mxCell id="UgSpfai0S6UUA32coAYj-40" value="Formateur possibilité de créer une session" style="rounded=1;whiteSpace=wrap;html=1;" vertex="1" parent="1">
          <mxGeometry x="707" y="80" width="120" height="60" as="geometry" />
        </mxCell>
      </root>
    </mxGraphModel>
  </diagram>
</mxfile>
